# xmcd
#
# Track frame offsets: 
#        150
#        10465
#        22804
#        33572
#        47165
#        58622
#        71948
#        83855
#        96896
#        108609
#        120849
#        134094
#        146957
#        160449
#        171783
#        184156
#        197250
#        211164
#        223933
#        236127
#        245389
#        256823
#        268670
#        282334
#        293948
#
# Disc length: 4077 seconds
#
# Revision: 2
# Processed by: cddbd v1.5.2PL0 Copyright (c) Steve Scherf et al.
# Submitted via: ExactAudioCopyFreeDBPlugin 1.0
#
DISCID=830feb19
DTITLE=Various Artist - Rhythm 'n' Blues:  Nasty [Membran Music] [box
DTITLE=set]
DYEAR=2005
DGENRE=Risqué
TTITLE0=Beverly Wright - Kissin' Boogie
TTITLE1=Bobby Merrel - I Ain't Mad at You
TTITLE2=Roy Brown - Lollypop Mama
TTITLE3=Annisteen Allen - She Lost Her Re-Bop
TTITLE4=King Perry - Natural Born Lover
TTITLE5=Nellie Lutcher - Fine Brown Frame
TTITLE6=B.B. King - Shake It Up and Go
TTITLE7=Buddy and Claudia Griffin - I Got a Secret
TTITLE8=The Swallows - It Ain't the Meat
TTITLE9=Jimmy McCracklin - Rockin' All Day
TTITLE10=Wynonie Harris - Keep on Churnin'
TTITLE11=Ruth Brown - Daddy Daddy
TTITLE12=Eddie Vinson - When a Woman Loves Her Juice
TTITLE13=The Treniers - Hey Little Girl
TTITLE14=Terry Timmons - He's the Best in the Business
TTITLE15=The "5" Royales - I Like it Like That
TTITLE16=Bull Moose Jackson - I Want a Bowlegged Woman
TTITLE17=Bomb Ferguson - I Love My Baby
TTITLE18=Eddie Davis - Mountain Oysters
TTITLE19=Dave Bartholomew - Little Girl Sing Ding-a-Ling
TTITLE20=Paula Watson - I Love to Ride
TTITLE21=Jimmy Preston and Burnetta Evans - Rock with it Baby
TTITLE22=Roy Brown - Good Rockin' Man
TTITLE23=Wynonie Harris - All She Wants to Do is Rock
TTITLE24=The Four Jacks - The Last of the Good Rocking Men
EXTD=YEAR: 2005
EXTT0=
EXTT1=
EXTT2=
EXTT3=
EXTT4=
EXTT5=
EXTT6=
EXTT7=
EXTT8=
EXTT9=
EXTT10=
EXTT11=
EXTT12=
EXTT13=
EXTT14=
EXTT15=
EXTT16=
EXTT17=
EXTT18=
EXTT19=
EXTT20=
EXTT21=
EXTT22=
EXTT23=
EXTT24=
PLAYORDER=
